<?xml version="1.0" encoding="UTF-8"?>
<svg width="50.787mm" height="60.821mm" version="1.1" viewBox="0 0 50.787468 60.82058" xmlns="http://www.w3.org/2000/svg">
<g transform="translate(-69.547 -36.93)">
<g>
<path d="m87.219 67.436-9.9391 5.2619c-0.77894 0.51217-1.2904 1.2918-1.6809 2.1924l-5.9196 15.42c-0.0339 3.8572 1.7932 5.6841 3.8733 7.2351l42.68 0.0731c3.027-1.4026 4.3542-4.1273 3.8733-8.2582l-5.0426-13.812c-0.57626-1.0231-1.4946-2.0463-2.8502-3.0694l-9.5006-5.1888c-5.0639 5.5759-10.234 5.2867-15.493 0.14614z" fill="#3a89c5" stroke="#020000" stroke-width=".26458px"/>
</g>
<g>
<rect x="78.23" y="76.278" width="33.106" height="21.194" ry="1.3885" fill="#b6b6b6" stroke="#020000" stroke-width=".26458"/>
</g>
<g>
<g fill="#ffd1b7" stroke="#000">
<path d="m85.314 61.437c-0.19354-6.0552 0.0303-0.0012-0.19354-6.0552-2.2073-0.28966-2.9016 0.9175-2.7606 2.4732 0.1504 1.6594 1.4288 3.5492 2.9541 3.5821z" stroke-width=".25834px"/>
<path d="m104.21 61.421c0.2207-6.6059-0.0346-0.0013 0.2207-6.6059 2.517-0.316 3.3088 1.0009 3.148 2.6981-0.17151 1.8103-1.6294 3.8719-3.3687 3.9078z" stroke-opacity=".94378" stroke-width=".28814px"/>
</g>
<g>
<path d="m85.369 61.392c0.88951 9.2734 7.4017 10.665 9.5089 10.705 4.1519 0.07754 9.8654-4.5637 9.6114-10.705l-0.10335-9.1984c-2.0546-8.1196-6.0053-8.8573-9.707-8.6913-3.1099 0.13943-7.1673-0.25336-9.4133 8.4846z" fill="#ffd1b7" stroke="#000" stroke-opacity=".9237" stroke-width=".26458px"/>
</g>
<g>
<rect x="86.576" y="55.328" width="6.8451" height="5.6914" ry="2.039" fill="#f9f9f9" stroke="#000" stroke-width=".31759"/>
<rect x="96.258" y="55.429" width="6.8451" height="5.6914" ry="2.039" fill="#f9f9f9" stroke="#000" stroke-width=".31759"/>
<rect x="93.243" y="56.982" width="3.1523" height=".77595" rx="0" ry=".38797" fill-rule="evenodd" stroke-width=".14382"/>
</g>
<g>
<path d="m85.121 55.381c0.0527 0.09829 0.0675 0.14353 0.0538 0.14759-0.0868 0.02559-1.3071-1.5826-1.3175-1.861-0.35256-2.0995-0.47992-4.2788-0.10688-6.7178 0.21406-0.48004 0.44813-0.94581 0.73205-1.376 0.24912-0.3775 0.53662-0.72765 0.88266-1.0361-0.45314-2.2031 2.2442-4.0546 4.0104-5.2593 1.0703-0.51026 2.3189-0.38126 3.6325-0.01928l3.3788 1.5349c1.1926 0.45201 2.5898 0.45256 3.9028-0.031 0.66911-0.46352 0.90337-0.99104 1.2386-1.5938 0.3257-0.58557 0.57431-1.2422 0.73461-1.9801 2.3314 2.2418 2.4993 5.1049 2.5787 8.0678 1.5994 3.5235 1.1007 6.0508 0.58336 8.7176-0.28789 0.56178-0.43628 1.3878-0.92285 1.3156-0.84944-1.8027-1.2922-5.1671-3.9631-3.7834-3.0153 0.583-5.9021 1.6241-9.8959 0.05368-1.339-0.51059-2.7186-2.2925-4.1859-0.0992-0.30049 0.68261-0.19336 1.3263-0.40021 1.9095-0.25289 0.71298-0.53899 1.5104-0.88215 2.1579z" stroke="#000" stroke-width=".26458px"/>
</g>
</g>
</g>
</svg>
