<?xml version="1.0" encoding="utf-8"?>
<!-- Generator: Adobe Illustrator 24.1.1, SVG Export Plug-In . SVG Version: 6.00 Build 0)  -->
<svg version="1.1" id="Layer_1" xmlns="http://www.w3.org/2000/svg" xmlns:xlink="http://www.w3.org/1999/xlink" x="0px" y="0px"
	 viewBox="0 0 512 512" style="enable-background:new 0 0 512 512;" xml:space="preserve">
<style type="text/css">
	.st0{fill:#7CBA3D;}
	.st1{fill:#C5D83E;}
	.st2{fill:url(#SVGID_1_);}
	.st3{fill:url(#SVGID_2_);}
	.st4{fill:url(#SVGID_3_);}
</style>
<g>
	<path class="st0" d="M421.5,306.1L421.5,306.1c-9.5-47.5-38.5-87.9-78.3-112.6l0,0l0,0l0,0l0,0c-3.7-2.3-7.5-4.4-11.3-6.4
		l-106.6-53.4l0,0l0,0l0,0l-5.7-2.9c-0.3-0.2-0.7-0.3-1-0.5h0l-0.1,0l0,0l-0.1,0l0,0l-0.1,0l0,0l-0.1,0l0,0l-0.1,0l0,0l0,0l0,0l0,0
		l0,0l0,0c-11.1-5.7-20.5-14.1-27.4-24.4c-7.8-11.7-12.4-25.7-12.4-40.8c0-28.1,15.8-52.4,39-64.7l-34.4,17.6
		C126,45.8,87.2,104.3,87.2,171.9l2.6,29.7h0l0,0l0.1,0l-0.1,0c9.3,53.5,43.2,98.6,89.7,123l0,0l0.1,0l0,0l0.1,0l0,0l0.1,0l0,0
		l0.2,0.1l0,0l0,0l0,0l0,0l0,0l0,0l0,0l0,0l0.1,0l10.7,5.4l0-0.1l0,0.1l0,0l0,0l12.7,6.4l88.9,44.6c24.5,11.9,41.3,36.9,41.3,66v0.2
		l0,0.1v0.3l0,0.1v0.1l0,0v0.1l0,0v0.1l0,0v0l0,0.1v0c-0.3,18.9-7.8,36.1-19.8,48.9c-5.5,5.9-12,10.8-19.2,14.7l22.1-11.3l12.3-6.3
		c56.6-28.3,95.5-86.8,95.5-154.3L421.5,306.1"/>
	<path class="st1" d="M87.2,171.9c0-67.6,38.9-126.1,95.5-154.3L217.1,0c-23.2,12.3-39,36.7-39,64.7c0,15.1,4.6,29.1,12.4,40.8
		c-11.7,29.2-18.4,59.1-20.7,88.9c-14.7,7.4-31.4,11.6-48.9,11.6c-1.7,0-3.4,0-5.1-0.1c-9.1-0.4-17.8-1.9-26.1-4.4L87.2,171.9z
		 M333.9,447.3L333.9,447.3L333.9,447.3z M333.9,447.4L333.9,447.4L333.9,447.4z M333.9,447.5L333.9,447.5L333.9,447.5z
		 M333.9,447.6L333.9,447.6L333.9,447.6z M333.9,447.7L333.9,447.7L333.9,447.7z M333.9,447.7L333.9,447.7L333.9,447.7z
		 M333.9,447.8L333.9,447.8L333.9,447.8z M333.9,447.9L333.9,447.9L333.9,447.9z M333.9,448L333.9,448L333.9,448z M333.9,448.1
		L333.9,448.1L333.9,448.1z M333.9,448.1L333.9,448.1L333.9,448.1z M333.9,448.2L333.9,448.2L333.9,448.2z M333.9,448.3L333.9,448.3
		L333.9,448.3z M333.9,448.5L333.9,448.5L333.9,448.5z"/>
	
		<linearGradient id="SVGID_1_" gradientUnits="userSpaceOnUse" x1="-1.2403" y1="507.0034" x2="8.173978e-02" y2="507.0034" gradientTransform="matrix(-13.4976 56.9909 -42.43 -18.1297 21641.5625 9503.7061)">
		<stop  offset="0" style="stop-color:#AACE36"/>
		<stop  offset="1" style="stop-color:#2FA042"/>
	</linearGradient>
	<path class="st2" d="M190.9,330.4l-10.7-5.4l-0.1,0l0,0l0,0l0,0l0,0l0,0l0,0l0,0l0,0l-0.2-0.1l0,0l-0.1,0l0,0l-0.1,0l0,0l-0.1,0
		l0,0c-46.5-24.4-80.5-69.5-89.7-123c8.3,2.5,17.1,4,26.1,4.4c1.7,0.1,3.4,0.1,5.1,0.1c17.5,0,34.1-4.2,48.9-11.6
		C166.2,241.3,173.7,287.8,190.9,330.4"/>
	
		<linearGradient id="SVGID_2_" gradientUnits="userSpaceOnUse" x1="1.1964" y1="511.9224" x2="2.5184" y2="511.9224" gradientTransform="matrix(192.9304 46.4724 -29.1617 307.456 14861.7041 -157159.4063)">
		<stop  offset="0" style="stop-color:#79A933"/>
		<stop  offset="0.13" style="stop-color:#70A333"/>
		<stop  offset="0.34" style="stop-color:#559332"/>
		<stop  offset="0.58" style="stop-color:#277B2F"/>
		<stop  offset="0.86" style="stop-color:#005F27"/>
		<stop  offset="1" style="stop-color:#005020"/>
	</linearGradient>
	<path class="st3" d="M225.2,133.6l-5.7-2.9c-0.3-0.2-0.7-0.3-1-0.5h0l-0.1,0l0,0l-0.1,0l0,0l-0.1,0l0,0l-0.1,0l0,0l-0.1,0l0,0l0,0
		l0,0l0,0l0,0l0,0c-11.1-5.7-20.5-14.1-27.4-24.4c-11.7,29.2-18.4,59.1-20.7,88.9c19.8-10,36.1-25.8,46.7-45.4L225.2,133.6z
		 M421.5,306.1c-40.6,26.8-89.1,42.4-140.9,42.4c-3.9,0-7.9-0.1-11.9-0.3c-22.6-1-44.4-5-65-11.5l88.9,44.6
		c24.5,11.9,41.3,36.9,41.3,66v0.2l0,0.1v0.3l0,0.1v0.1l0,0v0.1l0,0v0.1l0,0v0l0,0.1v0c-0.3,18.9-7.8,36.1-19.8,48.9
		c-5.5,5.9-12,10.8-19.2,14.7l22.1-11.3l12.3-6.3c56.6-28.3,95.5-86.8,95.5-154.3L421.5,306.1z"/>
	
		<linearGradient id="SVGID_3_" gradientUnits="userSpaceOnUse" x1="0.4816" y1="510.9753" x2="1.8036" y2="510.9753" gradientTransform="matrix(96.8565 162.56 -191.0404 82.4171 97772.5313 -42057.1797)">
		<stop  offset="0" style="stop-color:#79AB35"/>
		<stop  offset="0.53" style="stop-color:#7CBA3D"/>
		<stop  offset="1" style="stop-color:#00AA4B"/>
	</linearGradient>
	<path class="st4" d="M280.6,348.5c-3.9,0-7.9-0.1-11.9-0.3c-22.6-1-44.4-5-65-11.5l-12.7-6.4c-17.2-42.6-24.7-89.1-21.1-135.9
		c19.8-10,36.1-25.8,46.7-45.4l8.7-15.5L331.8,187c3.9,2,7.6,4.1,11.3,6.4l0,0l0,0l0,0l0,0c39.8,24.7,68.8,65.1,78.2,112.6
		C380.9,332.9,332.4,348.5,280.6,348.5"/>
</g>
</svg>
